<?xml version="1.0" standalone="no"?>
<!DOCTYPE svg PUBLIC "-//W3C//DTD SVG 20010904//EN"
 "http://www.w3.org/TR/2001/REC-SVG-20010904/DTD/svg10.dtd">
<svg version="1.0" xmlns="http://www.w3.org/2000/svg"
 width="512.000000pt" height="512.000000pt" viewBox="0 0 512.000000 512.000000"
 preserveAspectRatio="xMidYMid meet">
<metadata>
Created by potrace 1.11, written by Peter Selinger 2001-2013
</metadata>
<g transform="translate(0.000000,512.000000) scale(0.100000,-0.100000)"
fill="#000000" stroke="none">
<path d="M544 4422 c4 -6 -8 -9 -28 -7 -19 2 -46 -3 -60 -10 -16 -8 -24 -10
-20 -3 12 19 -74 -34 -108 -66 -48 -47 -72 -109 -73 -193 -1 -40 3 -73 8 -73
5 0 7 -7 3 -15 -3 -8 -1 -15 5 -15 6 0 8 -4 5 -8 -3 -5 4 -18 14 -30 11 -12
20 -24 20 -28 0 -8 63 -64 73 -64 4 0 9 0 12 0 3 1 13 -6 21 -15 9 -8 20 -13
25 -10 5 4 9 2 9 -3 0 -9 121 -10 150 -1 8 2 21 10 28 17 8 7 18 10 23 7 5 -4
9 -1 9 5 0 6 5 8 10 5 6 -3 10 -1 10 4 0 17 25 13 48 -6 11 -10 32 -27 47 -37
14 -11 38 -30 53 -43 15 -13 32 -23 39 -23 6 0 15 -9 18 -20 4 -11 10 -18 15
-15 5 3 15 -4 23 -15 7 -11 16 -18 18 -15 3 2 24 -13 47 -34 23 -21 66 -55 96
-76 31 -21 53 -42 50 -47 -3 -5 -2 -7 3 -6 11 3 53 -25 53 -35 0 -4 -5 -5 -11
-2 -6 4 -9 1 -8 -6 2 -8 -1 -24 -5 -36 -6 -19 -11 -21 -26 -13 -13 7 -21 7
-26 -1 -4 -8 -9 -7 -15 2 -6 9 -9 10 -9 2 0 -12 -17 -12 -37 0 -6 4 -15 3 -18
-3 -5 -8 -11 -7 -21 1 -11 9 -14 9 -14 0 0 -7 -4 -10 -8 -7 -4 2 -56 6 -114 7
-59 2 -106 5 -106 8 2 26 -4 52 -17 64 -8 8 -11 17 -8 21 4 3 1 6 -5 6 -7 0
-12 5 -12 11 0 6 -7 17 -15 25 -8 9 -15 12 -15 7 0 -4 -7 3 -16 15 -8 12 -22
22 -30 22 -8 0 -14 5 -14 10 0 6 -3 9 -7 8 -5 -1 -19 4 -32 11 -19 11 -22 11
-15 -1 6 -10 5 -11 -7 -2 -31 25 -187 5 -197 -25 -2 -6 -7 -9 -11 -6 -20 12
-121 -119 -113 -147 1 -5 -3 -8 -9 -8 -5 0 -7 -5 -3 -11 3 -6 0 -15 -7 -20 -8
-5 -9 -9 -3 -9 12 0 13 -48 1 -67 -5 -8 -4 -13 2 -13 6 0 11 -9 11 -19 0 -11
5 -23 10 -26 6 -3 10 -15 10 -26 0 -10 6 -19 13 -19 9 0 8 -3 -2 -9 -11 -7 -9
-10 8 -16 11 -3 21 -12 21 -20 0 -8 9 -17 20 -20 11 -3 20 -11 20 -16 0 -5 6
-9 14 -9 8 0 16 -4 18 -9 2 -5 12 -11 23 -13 11 -1 22 -6 25 -10 9 -11 102
-15 140 -6 19 5 41 10 48 10 6 1 12 5 12 10 0 4 7 8 15 8 9 0 18 6 21 14 7 18
33 14 49 -7 7 -9 17 -17 22 -17 5 0 29 -18 53 -39 25 -22 48 -37 52 -35 4 3 8
-2 8 -10 0 -9 8 -16 18 -16 17 -1 13 -5 -64 -69 -11 -10 -35 -26 -52 -37 -18
-10 -32 -23 -32 -28 0 -5 -3 -6 -7 -3 -3 4 -11 0 -17 -9 -10 -13 -14 -13 -31
4 -26 23 -96 51 -114 44 -8 -2 -11 0 -8 5 7 11 -43 10 -61 -1 -7 -4 -12 -2
-12 6 0 9 -3 9 -10 -2 -5 -8 -10 -12 -10 -7 0 4 -16 1 -35 -7 -19 -8 -35 -12
-35 -9 0 4 -7 -2 -15 -13 -8 -10 -15 -15 -15 -11 0 10 -79 -73 -81 -85 -1 -4
-2 -14 -3 -20 -1 -7 -7 -12 -12 -11 -13 2 -13 -1 -17 -92 -3 -68 9 -125 26
-125 4 0 6 -4 3 -9 -4 -5 6 -24 21 -43 41 -49 51 -58 62 -58 6 0 11 -4 11 -9
0 -5 10 -12 23 -16 12 -4 29 -9 37 -12 8 -2 23 -4 33 -4 9 0 17 -3 17 -7 0 -4
15 -7 34 -7 19 0 32 4 28 9 -3 5 2 6 12 3 10 -4 23 -4 29 0 7 4 17 8 22 8 27
3 74 28 69 37 -11 17 40 -3 57 -23 9 -11 20 -19 25 -19 5 0 17 -9 27 -20 10
-12 23 -18 29 -14 6 4 8 3 5 -2 -3 -5 10 -21 30 -34 19 -13 30 -26 24 -28 -6
-2 -8 -9 -5 -14 4 -6 3 -8 -3 -5 -5 3 -17 -2 -26 -11 -23 -25 -47 -44 -47 -37
0 3 -11 -6 -25 -21 -14 -15 -25 -23 -25 -18 0 5 -4 5 -8 -1 -21 -30 -40 -36
-64 -23 -13 7 -25 16 -28 20 -3 3 -14 8 -25 10 -11 1 -22 6 -25 10 -16 21
-200 9 -200 -13 0 -5 -5 -9 -11 -9 -20 0 -69 -41 -63 -52 4 -7 2 -8 -4 -4 -7
4 -17 -3 -24 -18 -6 -14 -15 -26 -21 -26 -5 0 -7 -6 -4 -14 3 -8 1 -16 -4 -18
-6 -2 -11 -11 -13 -20 -1 -10 -4 -20 -7 -22 -10 -10 2 -150 13 -157 6 -4 7
-12 4 -18 -4 -6 0 -11 9 -11 9 0 13 -4 10 -10 -5 -8 88 -113 97 -110 2 1 17
-4 33 -11 41 -17 172 -20 188 -5 7 7 18 11 25 8 6 -2 12 0 12 5 0 4 14 14 30
21 17 8 30 20 30 28 0 9 5 12 10 9 6 -3 10 -1 10 5 0 6 4 9 9 6 5 -3 12 1 15
10 4 10 2 13 -7 9 -6 -4 -3 1 7 9 11 9 16 16 11 16 -4 0 -1 8 8 18 10 10 15
21 12 24 -3 3 4 13 15 23 11 10 20 13 20 7 0 -8 7 -9 24 -2 13 5 27 6 30 3 9
-9 75 -9 69 0 -2 4 1 7 6 7 6 0 11 -3 11 -7 0 -5 44 -8 97 -7 54 0 107 -3 118
-7 13 -5 15 -8 5 -9 -10 0 -11 -3 -4 -8 20 -13 22 -39 6 -53 -10 -8 -33 -25
-52 -39 -19 -13 -38 -29 -42 -35 -4 -5 -8 -6 -8 -2 0 5 -14 -5 -31 -22 -17
-17 -34 -31 -38 -31 -5 0 -21 -11 -37 -25 -46 -40 -52 -44 -57 -39 -3 3 -10
-4 -17 -15 -6 -12 -17 -21 -25 -21 -8 0 -18 -6 -22 -13 -4 -7 -21 -21 -38 -31
-16 -10 -38 -26 -47 -35 -33 -31 -48 -42 -48 -34 0 4 -4 1 -10 -7 -8 -12 -11
-12 -28 3 -10 9 -24 17 -30 17 -7 0 -12 5 -12 12 0 6 -3 9 -6 5 -4 -3 -18 0
-33 7 -44 22 -126 18 -188 -10 -31 -13 -62 -32 -69 -42 -7 -9 -14 -13 -14 -7
0 17 -70 -99 -70 -116 0 -10 -6 -20 -12 -22 -10 -4 -10 -6 -1 -6 8 -1 10 -9 5
-23 -32 -99 58 -250 171 -287 19 -7 51 -13 70 -15 19 -2 41 -7 48 -11 7 -5 10
-4 5 3 -4 6 1 11 11 11 16 0 48 6 63 11 3 1 8 2 13 1 4 0 7 4 7 9 0 6 5 10 11
10 6 0 17 7 26 15 8 8 19 12 25 9 6 -4 8 -2 4 4 -3 5 -3 12 2 14 15 6 52 61
46 69 -3 5 0 9 5 9 6 0 11 7 11 15 0 8 3 15 8 15 13 0 18 97 7 145 -4 17 -8
36 -8 43 0 6 -5 12 -11 12 -6 0 3 9 20 19 18 11 35 24 39 30 3 6 11 9 16 6 5
-4 9 -2 9 3 0 5 21 24 48 42 26 19 49 37 52 41 3 4 12 9 20 11 8 2 21 11 28
21 7 9 20 17 28 17 8 0 13 4 9 9 -3 5 4 12 15 16 11 4 35 20 52 36 18 16 36
29 40 29 5 0 16 8 26 18 35 32 62 52 62 45 0 -4 7 2 15 14 l15 22 38 -22 c20
-11 40 -25 43 -29 3 -5 28 -10 55 -12 27 -3 51 -5 54 -6 3 -1 10 -1 15 0 6 1
26 4 45 6 19 3 36 9 38 14 2 5 10 6 18 3 8 -3 14 0 14 7 0 6 4 9 9 6 5 -3 12
1 15 10 4 9 9 14 13 11 14 -15 101 110 95 136 -1 4 8 11 21 16 17 7 22 16 21
37 -1 16 -3 39 -3 52 -1 12 -7 22 -16 22 -8 0 -16 5 -16 10 -2 14 -5 22 -13
43 -10 20 45 83 63 73 7 -5 8 -1 4 10 -4 12 -3 15 5 10 7 -4 12 -2 12 3 0 6 6
11 14 11 8 0 18 9 21 20 4 11 10 18 15 15 5 -3 15 1 23 9 8 8 17 12 21 9 3 -4
6 -1 6 5 0 7 3 11 8 10 14 -4 52 23 52 37 0 8 5 15 11 15 7 0 25 16 42 35 16
19 33 32 38 29 5 -3 9 0 9 6 0 6 5 8 10 5 6 -4 9 -3 8 2 -2 4 0 9 5 10 4 2 18
14 31 28 25 27 41 33 31 13 -4 -7 5 1 19 17 14 17 26 24 26 17 0 -7 4 -11 9
-8 4 3 16 -3 26 -14 10 -11 21 -17 26 -15 4 3 10 1 14 -5 3 -5 19 -10 35 -10
16 0 32 -5 35 -10 4 -6 13 -7 24 -1 10 6 23 6 31 1 8 -5 17 -5 20 0 3 5 18 10
33 12 16 3 33 11 38 19 6 10 9 11 9 1 0 -14 2 -12 52 31 15 13 25 27 21 30 -3
4 1 7 10 7 9 0 19 5 23 12 5 7 2 9 -7 4 -8 -4 -7 -2 2 6 9 7 17 18 18 23 4 28
14 45 24 45 7 0 6 4 -3 10 -8 5 -10 10 -4 10 6 0 10 11 9 25 -2 14 1 28 6 31
6 3 5 11 -2 20 -6 8 -9 17 -6 20 11 11 26 -6 32 -39 6 -31 18 -63 37 -100 5
-10 6 -22 3 -27 -4 -6 -2 -10 3 -10 8 0 16 -18 22 -50 1 -3 9 -13 18 -24 9
-10 16 -21 16 -25 -1 -3 3 -17 8 -31 5 -14 8 -25 6 -25 -1 0 5 -11 15 -25 9
-13 17 -33 17 -43 0 -10 5 -15 10 -12 6 3 10 -3 10 -14 0 -11 5 -23 10 -26 6
-4 8 -11 5 -16 -4 -5 -1 -9 4 -9 6 0 10 -3 9 -7 -1 -5 8 -30 21 -58 12 -27 24
-57 26 -65 2 -8 10 -28 19 -45 9 -16 16 -37 16 -45 0 -9 5 -21 12 -28 7 -7 9
-12 5 -12 -3 0 3 -21 13 -46 11 -25 20 -56 20 -69 0 -13 4 -26 8 -29 4 -2 9
-19 10 -37 1 -17 6 -37 9 -43 4 -6 8 -16 9 -23 11 -71 16 -103 19 -128 3 -16
7 -50 11 -75 4 -25 8 -124 9 -220 2 -96 3 -182 4 -190 1 -15 43 -40 67 -40 7
0 14 -4 16 -10 2 -5 17 -10 35 -12 17 -1 29 -6 27 -10 -5 -8 17 -12 44 -9 6 1
12 -3 12 -9 0 -5 6 -10 14 -10 8 0 27 -5 43 -12 15 -6 31 -11 36 -10 4 1 7 -1
7 -6 0 -4 12 -8 26 -9 15 0 30 -6 34 -13 4 -6 9 -11 11 -10 2 1 24 -3 49 -10
25 -7 47 -11 49 -10 2 1 7 -3 10 -9 4 -6 19 -12 34 -13 15 -1 27 -6 27 -11 0
-4 4 -5 10 -2 6 3 10 2 10 -4 0 -6 7 -8 15 -5 8 4 15 1 15 -5 0 -6 3 -10 8 -9
9 2 88 -20 111 -31 15 -8 72 -29 96 -35 6 -2 21 -8 35 -13 14 -6 28 -9 33 -6
4 2 7 0 7 -6 0 -6 7 -8 15 -5 8 4 15 1 15 -6 0 -6 5 -8 10 -5 6 4 17 1 25 -5
8 -7 21 -10 29 -7 8 3 16 1 18 -4 2 -7 12 -7 29 1 44 20 58 91 63 305 4 139 8
174 23 198 4 6 8 18 9 25 2 8 10 22 18 31 9 10 16 22 16 28 0 5 11 22 25 37
14 15 25 31 25 36 0 16 33 26 70 22 86 -9 194 -6 198 6 2 7 8 10 13 6 5 -3 9
0 9 6 0 6 4 9 9 5 6 -3 14 3 20 12 6 10 11 14 11 8 0 -14 78 72 85 95 4 11 11
20 16 20 5 0 9 8 9 18 0 10 3 22 8 26 4 4 8 16 8 27 1 10 3 20 4 22 1 1 3 29
4 62 1 33 5 66 9 73 5 6 4 12 -1 12 -5 0 -9 7 -9 15 0 8 5 15 10 15 6 0 7 3 4
6 -3 4 -1 16 5 28 16 29 19 41 23 113 2 34 10 75 18 90 8 15 14 43 13 61 0 17
4 32 9 32 7 0 7 3 0 8 -12 9 -15 112 -4 112 17 0 24 2 42 11 11 6 17 6 17 0 0
-6 18 6 39 27 22 20 39 39 38 42 0 3 4 23 11 45 17 64 -2 164 -40 205 -10 11
-15 20 -11 20 4 0 3 4 -3 8 -6 4 -26 36 -44 72 -18 36 -39 77 -47 92 -7 15
-13 29 -13 30 2 4 -11 60 -17 78 -3 8 -7 20 -9 25 -12 42 -17 63 -18 83 0 12
-3 22 -6 22 -3 0 -6 8 -7 18 -1 21 -12 100 -18 128 -8 38 -19 129 -19 159 -1
17 -4 32 -7 35 -4 3 -8 23 -10 45 -1 22 -5 45 -8 50 -3 6 -6 17 -7 25 -6 37
-48 160 -56 160 -5 0 -7 4 -4 8 3 5 -12 43 -33 85 -22 41 -36 79 -33 83 4 4 1
4 -5 0 -7 -4 -13 -2 -13 4 0 11 -33 61 -60 90 -30 32 -95 113 -98 121 -2 5 -9
9 -16 9 -7 0 -25 14 -41 30 -16 17 -35 30 -42 30 -8 0 -16 7 -19 15 -4 8 -10
15 -14 15 -4 0 -36 16 -70 35 -34 19 -69 35 -77 35 -8 0 -12 4 -9 9 4 5 -2 8
-11 6 -10 -1 -28 4 -41 12 -12 7 -27 11 -32 8 -6 -3 -10 -1 -10 5 0 7 -7 9
-17 6 -9 -4 -19 -2 -23 3 -3 6 -22 11 -43 13 -20 1 -37 5 -37 9 0 4 -71 6
-157 4 -87 -1 -158 -4 -158 -5 0 -1 -13 -3 -30 -4 -16 -1 -55 -9 -85 -16 -30
-8 -58 -13 -62 -12 -5 1 -8 -3 -8 -9 0 -6 -7 -9 -15 -5 -8 3 -15 1 -15 -5 0
-6 -5 -7 -10 -4 -6 3 -10 2 -10 -4 0 -5 -8 -8 -17 -7 -10 2 -24 -3 -31 -11 -8
-7 -18 -11 -23 -8 -5 4 -9 1 -9 -5 0 -6 -4 -8 -10 -5 -5 3 -10 3 -10 -2 0 -4
-15 -14 -32 -22 -18 -8 -48 -26 -67 -40 -19 -14 -36 -25 -38 -23 -2 1 -4 -1
-5 -5 0 -5 -13 -14 -27 -21 -75 -36 -291 -289 -291 -340 0 -7 -4 -12 -9 -12
-5 0 -11 -8 -13 -17 -8 -29 -10 -35 -35 -91 -13 -29 -21 -58 -18 -63 4 -5 1
-9 -5 -9 -6 0 -9 -4 -6 -9 3 -5 2 -22 -4 -37 -11 -34 -21 -87 -23 -129 -1 -16
-6 -36 -10 -42 -5 -8 -4 -13 2 -13 7 0 7 -8 2 -23 -11 -28 -8 -566 3 -589 5
-10 4 -18 -1 -18 -8 0 -36 62 -33 76 1 3 -6 11 -16 18 -11 8 -14 18 -9 27 5 8
5 11 0 7 -4 -4 -21 8 -39 26 -17 18 -37 31 -43 29 -7 -3 -13 0 -13 7 0 6 -4 8
-10 5 -5 -3 -10 -2 -10 3 0 6 -13 9 -29 8 -17 -1 -28 1 -25 5 2 4 0 10 -6 14
-5 3 -10 1 -10 -4 0 -13 -22 -10 -32 4 -5 6 -8 4 -8 -5 0 -13 -1 -13 -10 0 -5
8 -10 10 -10 5 0 -6 -14 -12 -31 -13 -17 -1 -41 -10 -55 -18 -13 -9 -24 -13
-24 -9 0 3 -7 -1 -15 -9 -13 -13 -20 -13 -38 -3 -12 6 -25 17 -29 22 -4 6 -8
7 -8 3 0 -5 -16 8 -37 27 -20 19 -40 32 -45 29 -4 -3 -8 1 -8 9 0 8 -9 17 -20
20 -11 3 -20 13 -20 24 0 10 -12 26 -28 35 -59 37 -67 43 -74 53 -4 6 -8 6 -8
1 0 -5 -9 1 -20 14 -11 13 -20 20 -20 17 0 -4 -8 1 -18 11 -11 9 -17 21 -14
26 3 5 0 6 -5 3 -13 -8 -55 27 -46 37 4 4 0 4 -10 0 -12 -4 -17 -1 -17 11 0 9
-4 14 -9 11 -16 -10 -20 22 -5 35 8 7 13 18 10 24 -2 7 -1 16 4 21 17 17 15
101 -3 128 -10 14 -15 26 -12 26 11 0 -29 64 -57 92 -14 14 -23 30 -20 34 4 4
2 4 -5 1 -6 -4 -18 0 -26 8 -9 8 -22 15 -29 15 -8 0 -19 5 -26 12 -15 15 -152
19 -169 5 -7 -5 -13 -6 -13 -2 0 4 -7 1 -16 -6 -9 -7 -23 -14 -31 -15 -9 -2
-20 -7 -25 -12 -13 -13 -77 18 -78 37 0 8 -3 12 -6 8 -3 -3 -18 5 -32 18 -14
13 -29 22 -34 19 -7 -5 -12 10 -9 29 1 5 -2 6 -7 3 -12 -7 -74 39 -64 48 4 4
2 6 -4 4 -10 -3 -49 23 -98 65 -11 10 -33 26 -48 35 -16 9 -28 22 -28 30 0 7
-4 10 -10 7 -5 -3 -10 -1 -10 4 0 6 -7 11 -15 11 -9 0 -18 7 -21 15 -3 8 -14
17 -24 20 -13 4 -17 13 -13 33 2 15 5 37 6 50 1 12 5 22 9 22 13 0 -6 123 -23
145 -4 6 -7 12 -8 15 0 18 -15 40 -28 40 -8 0 -12 4 -9 9 3 4 -3 16 -14 26
-11 10 -20 14 -20 9 0 -5 -6 1 -14 12 -8 11 -34 26 -58 33 -24 7 -51 17 -62
23 -12 6 -16 6 -12 0z m26 -125 c0 -4 4 -6 9 -3 4 3 21 -6 37 -19 16 -14 33
-25 37 -25 5 0 6 -4 3 -9 -4 -5 -2 -11 4 -13 5 -1 11 -12 13 -23 1 -11 6 -26
10 -32 5 -8 3 -13 -5 -13 -8 0 -9 -3 -3 -8 9 -6 12 -26 6 -34 -2 -2 -4 -14 -7
-27 -2 -13 -13 -32 -24 -41 -11 -9 -17 -19 -14 -22 2 -3 -9 -11 -26 -18 -16
-7 -30 -17 -30 -22 0 -6 -8 -8 -19 -5 -10 2 -26 0 -35 -5 -10 -6 -16 -5 -16 2
0 6 -4 9 -8 6 -5 -3 -20 1 -35 9 -15 8 -27 12 -27 9 0 -2 -14 9 -32 26 -17 17
-28 33 -25 36 3 4 0 12 -7 20 -21 20 -14 121 10 140 10 9 13 12 5 8 -30 -15 1
15 44 44 33 22 55 29 90 28 25 0 45 -4 45 -9z m3238 -91 c23 -3 46 -7 51 -10
4 -3 21 -8 37 -10 65 -12 77 -16 88 -26 7 -5 16 -7 19 -3 4 3 7 1 7 -5 0 -6 7
-9 17 -5 12 5 14 3 8 -7 -5 -8 -3 -11 6 -8 8 3 31 -6 51 -19 21 -12 40 -23 43
-23 6 0 20 -11 50 -38 8 -7 15 -10 15 -6 0 9 118 -114 162 -168 15 -18 42 -62
60 -98 18 -36 38 -68 43 -72 6 -4 6 -8 1 -8 -5 0 -2 -7 5 -17 8 -9 13 -19 13
-22 -2 -6 -1 -7 16 -62 10 -36 16 -60 26 -109 3 -14 7 -32 10 -41 6 -22 16
-105 17 -146 1 -18 4 -33 7 -33 4 0 7 -12 7 -27 1 -16 4 -44 7 -63 4 -19 9
-48 11 -65 2 -16 4 -30 5 -30 1 0 3 -9 5 -19 2 -11 7 -31 11 -45 4 -14 7 -35
7 -46 1 -11 4 -22 8 -25 4 -3 10 -19 13 -35 2 -17 5 -31 6 -32 2 -2 4 -7 5
-13 1 -5 4 -12 5 -15 1 -3 3 -9 4 -14 0 -5 4 -13 9 -17 4 -4 7 -15 7 -25 0
-19 60 -142 72 -147 4 -2 8 -10 8 -18 0 -8 7 -17 15 -20 8 -4 12 -10 9 -15 -3
-5 -1 -9 4 -9 12 0 34 -49 27 -60 -3 -5 -17 -7 -31 -4 -14 3 -23 1 -21 -3 3
-4 -11 -9 -30 -10 -19 -1 -41 -7 -49 -14 -8 -6 -14 -8 -14 -3 0 5 -9 -4 -20
-21 -12 -19 -18 -40 -15 -60 5 -31 13 -93 21 -159 4 -33 0 -43 -25 -65 -24
-22 -28 -33 -26 -67 1 -22 8 -50 14 -62 9 -17 9 -27 -1 -44 -7 -13 -13 -26
-14 -30 -1 -5 -2 -9 -4 -10 -6 -8 -10 -55 -14 -149 -4 -91 -8 -112 -28 -143
-25 -38 -58 -58 -98 -62 -14 -1 -25 -3 -25 -4 0 -1 -10 -3 -22 -4 -13 -2 -23
0 -23 3 0 10 -152 6 -175 -4 -22 -9 -75 -64 -75 -77 0 -5 -6 -6 -12 -2 -7 4
-10 4 -6 -1 7 -7 -25 -71 -42 -85 -8 -6 -50 -107 -55 -129 -2 -9 -7 -34 -12
-56 -5 -22 -9 -86 -9 -142 1 -57 -3 -103 -8 -103 -5 0 -3 -6 3 -14 8 -10 9
-16 1 -21 -6 -3 -8 -10 -5 -15 5 -8 -25 -4 -55 8 -8 3 -17 6 -20 6 -3 1 -11 5
-17 9 -7 5 -17 6 -22 2 -5 -3 -12 -1 -16 5 -3 5 -15 10 -26 10 -10 0 -19 5
-19 12 0 6 -2 9 -5 6 -3 -3 -43 8 -88 24 -45 17 -88 30 -94 31 -7 0 -13 4 -13
8 0 4 -9 6 -20 4 -11 -2 -20 0 -20 6 0 5 -6 9 -14 9 -8 0 -27 5 -43 12 -32 13
-28 12 -70 22 -18 4 -33 11 -33 15 0 3 -12 8 -26 9 -15 1 -33 7 -40 13 -8 6
-14 8 -14 5 0 -4 -12 0 -27 8 -16 8 -49 20 -75 27 -27 8 -48 17 -48 22 0 4 -4
6 -9 2 -18 -11 -25 20 -27 120 -2 113 -11 260 -17 290 -6 25 -20 107 -22 120
0 6 -4 26 -9 45 -4 19 -8 42 -9 50 -2 8 -6 20 -9 26 -4 6 -9 21 -12 35 -11 51
-15 67 -41 149 -15 47 -31 90 -35 95 -11 16 -45 109 -42 118 1 4 -1 7 -6 7 -4
0 -13 15 -21 33 -7 17 -29 65 -47 105 -19 40 -34 77 -34 82 0 6 -5 10 -12 10
-6 0 -9 3 -5 6 3 4 -5 28 -18 55 -14 27 -25 56 -25 64 0 9 -4 14 -9 11 -5 -4
-8 2 -7 11 2 10 -1 20 -5 23 -5 3 -10 15 -12 25 -2 11 -7 27 -10 35 -4 8 -9
26 -11 40 -3 14 -5 25 -6 25 -12 0 -17 302 -7 445 3 47 6 85 7 85 1 0 3 23 5
50 2 28 6 64 10 80 3 17 7 37 9 45 7 45 19 82 47 145 7 17 12 33 11 38 -1 4 3
7 8 7 6 0 10 8 10 18 0 9 11 29 25 44 14 15 25 31 25 36 0 5 10 21 23 35 95
108 113 127 121 127 5 0 17 10 28 23 11 12 23 22 27 22 3 0 17 10 31 23 13 12
28 22 32 22 5 0 26 11 47 24 21 14 42 22 45 19 3 -4 6 -1 6 5 0 7 9 12 20 12
11 0 20 5 20 11 0 7 10 9 24 7 19 -4 23 -1 18 11 -5 14 -3 14 11 2 9 -7 17 -9
17 -3 0 5 15 13 33 17 17 4 37 9 42 10 6 2 19 5 30 7 11 2 26 7 33 11 7 5 12
3 12 -4 0 -8 4 -8 15 1 8 7 23 10 34 7 10 -2 24 -1 30 2 12 8 170 6 239 -3z
m-3220 -628 c23 -10 42 -22 42 -26 0 -5 9 -17 19 -29 20 -21 35 -109 20 -118
-4 -3 -6 -12 -3 -19 3 -8 -15 -34 -39 -60 -44 -44 -66 -60 -51 -33 6 9 5 9 -8
0 -8 -7 -18 -10 -21 -6 -4 3 -7 1 -7 -6 0 -21 -91 -1 -118 26 -7 7 -18 16 -25
20 -23 15 -46 77 -42 113 8 58 10 66 27 92 15 23 98 75 98 62 0 -3 8 -1 17 4
18 11 26 9 91 -20z m902 -17 c3 -3 12 -7 20 -9 17 -3 69 -59 71 -76 6 -50 4
-106 -3 -106 -4 0 -8 -7 -8 -15 0 -8 -5 -15 -11 -15 -5 0 -8 -4 -4 -9 3 -5 -8
-19 -25 -31 -16 -12 -30 -18 -30 -14 0 3 -6 2 -12 -3 -16 -12 -96 -14 -103 -2
-3 4 -12 6 -20 2 -9 -3 -15 1 -15 11 0 9 -4 16 -10 16 -16 0 -47 35 -42 48 2
7 -1 12 -7 12 -5 0 -8 9 -6 20 2 11 0 22 -6 25 -5 4 -5 14 2 27 9 16 8 19 -3
12 -12 -8 -1 13 38 71 20 28 92 54 134 48 19 -3 37 -8 40 -12z m-354 -190 c14
-1 26 -12 34 -30 10 -25 9 -34 -4 -53 -9 -13 -20 -22 -24 -20 -4 1 -16 -6 -27
-15 -11 -10 -22 -18 -25 -18 -7 0 -36 -24 -57 -47 -9 -9 -20 -15 -25 -12 -4 3
-8 1 -8 -4 0 -5 -9 -12 -20 -15 -11 -3 -20 -1 -20 4 0 5 -5 9 -11 9 -5 0 -24
13 -42 30 -18 16 -35 30 -39 30 -4 0 -18 10 -33 23 -14 12 -36 31 -49 41 -19
16 -22 25 -16 47 5 15 6 29 4 32 -4 4 295 2 362 -2z m134 -171 c0 -5 9 -10 21
-10 11 0 17 -4 14 -10 -3 -5 1 -11 9 -11 17 -2 35 -5 39 -8 2 -3 36 -9 72 -15
27 -4 101 16 151 42 37 19 43 20 63 6 12 -9 19 -20 16 -25 -4 -5 1 -9 9 -9 8
0 21 -6 28 -14 8 -7 24 -17 36 -20 12 -4 20 -12 16 -17 -3 -6 3 -13 15 -16 19
-5 25 -15 22 -35 0 -4 14 -17 32 -30 17 -12 37 -29 44 -38 8 -10 12 -11 13 -3
0 13 3 11 62 -39 11 -10 25 -15 31 -11 5 3 7 2 4 -3 -3 -6 8 -19 24 -29 16
-11 29 -23 29 -27 0 -5 5 -8 11 -8 7 0 20 -10 30 -21 15 -17 16 -25 7 -43 -6
-11 -11 -22 -10 -23 12 -19 -50 -26 -76 -9 -7 4 -12 2 -12 -6 0 -9 -3 -9 -10
2 -7 11 -10 11 -10 2 0 -10 -5 -10 -20 -2 -14 8 -20 8 -20 0 0 -8 -6 -8 -20 0
-11 6 -20 7 -20 3 0 -4 -13 -8 -30 -8 -16 0 -30 3 -30 7 0 3 -9 4 -21 1 -12
-4 -25 0 -30 8 -7 11 -9 11 -9 -3 0 -15 -4 -15 -31 -6 -19 7 -28 15 -25 24 3
8 1 14 -5 14 -6 0 -7 5 -4 10 3 6 1 10 -5 10 -7 0 -10 5 -8 12 5 14 -82 109
-93 102 -5 -3 -9 -1 -9 4 0 19 -71 43 -128 44 -60 1 -123 -8 -132 -20 -3 -4
-12 -8 -20 -10 -8 -2 -16 -8 -18 -13 -6 -16 -38 -10 -57 11 -10 11 -22 20 -27
20 -14 0 -47 38 -40 46 4 4 2 4 -4 1 -11 -6 -74 39 -74 53 0 4 23 21 50 38 28
17 50 36 50 42 0 6 5 8 10 5 6 -3 10 -1 10 4 0 6 7 11 16 11 8 0 13 4 10 9 -7
10 9 19 37 20 9 1 17 -3 17 -9z m-261 -220 c4 0 26 -18 49 -39 23 -22 42 -37
42 -33 0 3 13 -6 28 -21 16 -15 31 -25 34 -22 3 3 8 -3 11 -15 3 -11 1 -20 -4
-20 -5 0 -8 -3 -8 -7 4 -22 -2 -40 -13 -41 -7 0 -37 -2 -66 -5 -29 -2 -55 0
-58 5 -3 4 -11 5 -19 1 -7 -5 -52 -6 -99 -3 -47 3 -86 1 -86 -3 0 -4 -8 -3
-19 2 -10 6 -21 7 -25 4 -3 -3 -6 5 -6 20 0 14 -4 27 -9 29 -15 5 10 30 72 72
31 22 57 43 57 48 0 4 5 8 11 8 6 0 24 11 41 25 26 22 31 23 44 10 9 -8 19
-15 23 -15z m-533 -102 c-6 11 1 13 35 11 24 -2 55 -9 69 -16 30 -15 71 -59
63 -67 -4 -3 -2 -6 4 -6 6 0 14 -7 17 -16 4 -9 2 -13 -5 -8 -7 4 -7 -1 1 -16
13 -24 4 -100 -11 -100 -6 0 -8 -4 -4 -9 3 -6 -4 -15 -15 -21 -11 -6 -18 -15
-16 -19 10 -15 -69 -40 -120 -38 -39 2 -61 10 -88 31 -20 15 -34 32 -31 37 4
5 2 9 -4 9 -12 0 -25 35 -26 75 -3 78 84 184 124 152 12 -10 13 -9 7 1z m1012
-17 c2 -6 8 -9 13 -5 5 3 9 1 9 -5 0 -5 9 -13 21 -16 11 -4 18 -9 15 -13 -3
-3 1 -13 9 -22 9 -10 18 -30 21 -46 2 -16 7 -35 9 -42 3 -8 0 -10 -7 -6 -8 5
-9 2 -5 -10 12 -30 -55 -116 -93 -119 -11 -1 -20 -4 -20 -7 0 -10 -79 -1 -103
11 -27 14 -58 46 -73 75 -13 25 -15 114 -2 114 4 0 7 4 6 9 -5 14 41 71 57 71
8 0 15 5 15 11 0 6 7 9 15 5 8 -3 15 -2 15 3 0 12 94 4 98 -8z m902 -2 c0 -5
5 -9 11 -9 18 0 76 -64 71 -78 -2 -6 0 -12 5 -12 5 0 9 -22 9 -50 0 -27 -4
-50 -8 -50 -4 0 -4 -7 -1 -17 4 -9 2 -14 -3 -10 -5 3 -15 -7 -22 -23 -8 -17
-19 -27 -26 -24 -8 3 -16 -2 -20 -11 -3 -9 -10 -13 -16 -10 -5 3 -10 1 -10 -4
0 -6 -20 -11 -45 -11 -29 0 -45 4 -45 13 0 9 -2 9 -9 -1 -7 -11 -11 -11 -24 2
-8 9 -19 16 -24 16 -13 0 -43 38 -43 55 0 8 -5 15 -12 15 -6 0 -9 2 -6 6 3 3
2 21 -2 40 -4 18 -4 34 0 34 5 0 7 9 5 20 -2 11 0 20 4 20 5 0 12 12 15 26 4
15 18 30 37 38 16 7 26 15 22 19 -7 8 1 10 57 12 22 1 43 4 46 8 8 8 34 -3 34
-14z m-1400 -191 c0 -4 9 -4 19 0 11 4 46 5 79 4 55 -3 61 -6 71 -30 15 -39 8
-67 -17 -66 -12 1 -20 -3 -19 -9 1 -6 -7 -15 -18 -21 -11 -6 -34 -24 -52 -39
-17 -16 -34 -28 -38 -27 -4 1 -14 -7 -23 -17 -19 -21 -48 -24 -45 -5 2 7 -4
12 -12 12 -8 0 -15 4 -15 9 0 5 -11 12 -25 15 -14 4 -25 13 -25 22 0 8 -4 12
-10 9 -5 -3 -10 -3 -10 2 0 4 -23 23 -50 42 -46 32 -62 51 -41 51 4 0 8 10 7
22 -1 18 6 24 28 28 45 8 196 6 196 -2z m822 -14 c6 -4 8 -3 4 4 -8 14 46 11
56 -3 5 -7 8 -7 8 0 0 11 67 12 77 1 3 -3 14 -1 24 5 13 7 19 6 19 -1 0 -8 6
-8 20 0 16 8 24 8 35 -4 18 -18 20 -29 3 -21 -7 4 -6 1 3 -7 9 -7 13 -20 10
-30 -7 -19 -54 -58 -71 -58 -6 0 -8 -4 -5 -10 3 -5 -1 -10 -9 -10 -9 0 -16 -4
-16 -8 0 -5 -11 -15 -25 -22 -13 -7 -22 -17 -19 -22 3 -4 0 -8 -6 -8 -5 0 -24
-12 -40 -27 -51 -47 -60 -54 -60 -46 -1 4 -7 -3 -15 -17 -8 -14 -14 -22 -15
-17 0 4 -8 -1 -18 -10 -38 -36 -57 -48 -77 -49 -11 0 -19 -6 -17 -13 1 -7 -2
-10 -8 -6 -5 3 -10 1 -10 -6 0 -7 -3 -9 -7 -6 -3 4 -15 -1 -25 -10 -20 -18
-48 -26 -48 -14 0 4 -16 13 -35 21 -19 8 -35 16 -35 19 0 3 -10 7 -22 7 -13 1
-42 4 -65 6 -24 2 -43 0 -43 -4 0 -4 -9 -5 -20 -3 -11 2 -20 -1 -20 -6 0 -6
-5 -7 -10 -4 -6 4 -17 1 -25 -5 -8 -7 -15 -9 -15 -4 0 4 -11 -3 -25 -16 l-25
-23 -47 36 c-27 20 -58 46 -70 59 -13 12 -23 19 -23 14 0 -5 -9 2 -21 15 -22
25 -23 23 32 59 13 8 33 25 45 36 13 12 25 19 28 16 3 -3 6 -1 6 4 0 5 14 18
30 27 18 11 30 14 30 7 0 -6 5 -8 10 -5 6 3 10 2 10 -3 0 -9 37 -25 53 -23 4
1 7 -4 7 -10 0 -5 4 -8 9 -4 5 3 12 2 15 -3 11 -19 186 -1 186 19 0 6 4 8 9 4
5 -3 17 2 25 11 9 8 16 13 16 9 0 -11 56 52 78 87 12 19 19 38 15 41 -3 4 -1
7 6 7 8 0 11 6 7 16 -3 8 -2 13 2 10 4 -2 13 -1 20 3 14 8 77 5 94 -5z m-771
-416 c10 -10 19 -16 19 -13 0 6 30 -18 77 -61 22 -20 31 -34 24 -39 -6 -3 -9
-11 -6 -16 4 -5 1 -9 -5 -9 -6 0 -8 -4 -5 -10 10 -16 -33 -20 -205 -18 -155 2
-166 3 -177 22 -7 12 -12 27 -13 34 0 14 23 42 35 42 8 0 89 63 93 73 2 4 10
7 18 7 8 0 14 4 14 9 0 5 14 15 32 24 35 17 28 20 99 -45z m-526 -58 c5 -8 11
-8 19 -1 9 8 19 5 34 -9 12 -11 24 -20 27 -20 19 0 58 -66 60 -100 1 -14 5
-31 9 -38 4 -7 2 -12 -3 -12 -6 0 -11 -11 -11 -25 0 -14 -4 -25 -10 -25 -5 0
-10 -7 -10 -15 0 -9 -7 -18 -15 -21 -8 -4 -12 -10 -9 -15 3 -5 -4 -9 -14 -9
-11 0 -25 -7 -32 -15 -7 -9 -19 -14 -27 -11 -7 3 -13 0 -14 -7 0 -8 -2 -9 -5
-1 -3 7 -13 10 -24 7 -10 -3 -35 3 -57 13 -37 18 -72 44 -57 44 4 0 -3 9 -16
20 -13 11 -20 20 -16 20 4 0 4 6 0 12 -13 21 -11 100 3 105 7 3 10 9 7 14 -9
16 69 86 94 84 13 -1 25 2 28 7 7 11 32 10 39 -2z m937 -24 c5 -7 8 -7 8 2 0
10 4 10 22 0 12 -7 28 -19 36 -25 7 -7 18 -13 23 -13 6 0 7 -5 3 -11 -3 -6 -3
-14 2 -18 5 -3 15 -18 21 -33 10 -22 10 -28 0 -28 -8 0 -7 -4 3 -10 8 -5 10
-10 4 -10 -6 0 -11 -13 -11 -29 0 -30 -39 -89 -60 -90 -6 -1 -13 -6 -15 -11
-5 -16 -119 -16 -148 0 -25 14 -56 40 -46 40 3 0 -2 9 -11 19 -9 11 -17 34
-18 53 -3 43 13 108 26 108 6 0 7 5 4 10 -3 6 -2 10 4 10 5 0 16 6 23 13 19
18 68 38 79 32 5 -4 9 -2 9 4 0 12 32 2 42 -13z m-936 -679 c8 3 14 0 14 -7 0
-6 4 -9 8 -6 5 3 23 -4 41 -15 54 -33 91 -144 59 -178 -11 -11 -10 -12 1 -6 8
5 7 -3 -5 -21 -21 -34 -54 -68 -54 -57 0 4 -4 2 -9 -6 -5 -8 -18 -16 -28 -19
-40 -8 -94 -9 -99 -1 -3 5 -9 7 -14 4 -10 -6 -80 57 -80 72 0 6 -5 13 -11 15
-15 5 -15 103 -1 121 7 8 9 17 5 20 -3 4 0 7 7 7 7 0 10 3 7 6 -6 7 41 49 55
49 4 0 12 5 19 12 6 6 17 9 24 7 7 -3 16 0 20 6 5 8 11 8 17 2 6 -6 17 -8 24
-5z"/>
<path d="M1740 3026 c0 -2 11 -11 25 -20 25 -17 25 -16 13 4 -11 17 -38 29
-38 16z"/>
<path d="M1690 2580 c-9 -6 -10 -10 -3 -10 6 0 15 5 18 10 8 12 4 12 -15 0z"/>
</g>
</svg>
